<svg width="48" height="48" viewBox="0 0 48 48" fill="none" xmlns="http://www.w3.org/2000/svg">
<g id="contacts">
<path id="Vector" d="M40 0H8V4H40V0ZM8 48H40V44H8V48ZM40 8H8C6.93913 8 5.92172 8.42143 5.17157 9.17157C4.42143 9.92172 4 10.9391 4 12V36C4 37.0609 4.42143 38.0783 5.17157 38.8284C5.92172 39.5786 6.93913 40 8 40H40C41.0609 40 42.0783 39.5786 42.8284 38.8284C43.5786 38.0783 44 37.0609 44 36V12C44 10.9391 43.5786 9.92172 42.8284 9.17157C42.0783 8.42143 41.0609 8 40 8V8ZM24 13.5C25.1935 13.5 26.3381 13.9741 27.182 14.818C28.0259 15.6619 28.5 16.8065 28.5 18C28.5 19.1935 28.0259 20.3381 27.182 21.182C26.3381 22.0259 25.1935 22.5 24 22.5C22.8065 22.5 21.6619 22.0259 20.818 21.182C19.9741 20.3381 19.5 19.1935 19.5 18C19.5 16.8065 19.9741 15.6619 20.818 14.818C21.6619 13.9741 22.8065 13.5 24 13.5V13.5ZM34 34H14V31C14 27.66 20.66 26 24 26C27.34 26 34 27.66 34 31V34Z" fill="#F2C700"/>
</g>
</svg>
