<svg width="588" height="400" viewBox="0 0 588 400" fill="none" xmlns="http://www.w3.org/2000/svg">
<path d="M417.428 219.626L445.714 128.323H487.714L492 219.626L546 238.399L525.428 280.21L433.714 273.384L417.428 219.626Z" fill="#F2C700"/>
<path d="M282.857 271.677L342 114.67L379.715 118.083L426.857 208.533L433.715 275.944L329.143 293.01L282.857 271.677Z" fill="#FBEEB3"/>
<path d="M143.865 62.0639L148.213 63.3736C144.653 69.3549 139.326 75.4519 131.905 79.9647C131.321 78.9112 130.044 77.2633 129.095 76.513C136.05 72.696 141.141 66.98 143.865 62.0639ZM145.08 87.0486L149.495 88.3641C145.273 94.9574 138.832 101.427 129.516 105.978C129.01 104.797 127.812 103.022 126.931 102.278C135.641 98.4776 141.84 92.4555 145.08 87.0486ZM141.96 68.4548L155.177 69.5898L154.82 73.7059L138.249 72.2828L141.96 68.4548ZM153.365 69.4342L154.17 69.5034L154.993 69.3733L157.745 71.148C152.341 83.5923 141.844 90.8506 131.211 94.218C130.778 92.9769 129.848 91.225 129.051 90.287C138.883 87.5866 148.82 80.5478 153.291 70.2973L153.365 69.4342ZM143.036 92.6919L154.777 93.7002L154.409 97.9491L139.045 96.6297L143.036 92.6919ZM153.704 93.608L154.509 93.6771L155.398 93.5529L158.163 95.1948C152.387 111.152 140.674 119.175 127.76 122.347C127.327 121.106 126.481 119.16 125.628 118.084C137.601 115.634 148.81 107.969 153.629 94.4711L153.704 93.608ZM135.743 79.3579L139.171 77.2444C141.649 79.0625 144.718 81.8675 146.173 83.7983L142.649 86.238C141.2 84.2408 138.204 81.3751 135.743 79.3579ZM136.045 104.732L139.546 102.558C142.085 104.449 145.21 107.392 146.653 109.456L142.996 111.884C141.619 109.826 138.635 106.828 136.045 104.732ZM167.928 64.3978L172.46 65.924C168.886 75.1814 163.603 83.8906 157.992 89.3613C157.323 88.5013 155.516 86.7409 154.5 85.9848C160.07 80.9788 164.826 72.8931 167.928 64.3978ZM184.733 75.6059L189.362 76.0034C189.362 76.0034 189.201 77.8623 189.071 78.5868C185.779 110.341 184.356 120.519 181.95 123.322C180.582 125.077 179.121 125.554 177.085 125.646C175.122 125.678 172.042 125.347 169.034 124.955C169.021 123.549 168.663 121.445 167.972 120.048C171.304 120.602 174.323 120.861 175.598 120.971C176.733 121.135 177.292 120.915 177.971 120.104C179.905 118.063 181.452 107.227 184.635 76.7345L184.733 75.6059ZM165.058 85.8214L178.409 86.9679L176.373 110.47L163.021 109.323L163.378 105.207L172.57 105.996L173.887 90.7932L164.695 90.0039L165.058 85.8214ZM162.441 85.5967L166.601 85.9539L164.122 114.567L159.962 114.21L162.441 85.5967ZM165.344 73.9408L186.545 75.7614L186.159 80.2095L164.958 78.3888L165.344 73.9408Z" fill="black"/>
<path d="M79.241 63.6371L84.2336 65.1716C80.6011 75.9182 75.3543 86.1114 69.454 92.6545C68.6375 91.6859 66.7176 89.8622 65.6142 89.0072C71.2547 83.0638 76.0984 73.5272 79.241 63.6371ZM75.5517 92.6252L80.4815 94.0853C77.5714 102.89 73.1038 111.284 68.4106 116.686C67.4507 115.774 65.3695 114.213 64.1855 113.49C68.9058 108.573 72.9133 100.693 75.5517 92.6252ZM77.5047 76.4817L108.443 79.1385L108.027 83.9409L75.0947 81.1128L77.5047 76.4817ZM87.9888 79.3863L93.1452 79.8292L89.5369 121.472C89.2812 124.422 88.5317 125.879 86.5353 126.537C84.6017 127.269 81.6335 127.152 77.3709 126.786C77.1519 125.316 76.5918 122.987 75.9663 121.413C79.1858 121.828 82.1481 122.013 83.1106 122.096C84.0044 122.172 84.3032 121.921 84.3805 121.03L87.9888 79.3863ZM96.7757 95.4846L101.513 94.3708C104.876 101.917 107.493 111.679 108.109 118.16L103.085 119.387C102.532 112.981 99.9328 103.013 96.7757 95.4846ZM106.931 79.0086L107.618 79.0677L108.524 79.0072L112.033 80.0689C110.631 85.063 108.951 90.8626 107.736 94.4906L103.339 93.2835C104.392 89.9182 105.785 84.2322 106.865 79.7633L106.931 79.0086ZM65.4278 62.3817L70.1784 64.3102C64.6302 75.5834 56.5441 86.5695 48.4531 93.6157C48.0042 92.4021 46.7982 89.534 45.9367 88.285C53.3198 82.2148 60.6741 72.4791 65.4278 62.3817ZM56.7439 79.4678L61.9786 75.0101L62.1102 75.0905L57.7885 124.966L52.8383 124.541L56.7439 79.4678Z" fill="black"/>
<path d="M472.949 321.08C471.577 313.479 482.321 311.476 482.321 306.288C482.321 303.147 480.081 300.871 475.418 300.871C472.263 300.871 469.383 302.237 466.731 304.968L464.308 302.737C467.325 299.551 470.891 297.412 475.829 297.412C482.276 297.412 486.436 300.735 486.436 305.969C486.436 312.842 475.509 314.253 476.698 321.08H472.949ZM474.915 332.277C473.269 332.277 471.989 331.139 471.989 329.319C471.989 327.498 473.315 326.269 474.915 326.269C476.515 326.269 477.841 327.498 477.841 329.319C477.841 331.139 476.515 332.277 474.915 332.277Z" fill="black"/>
<path d="M412.004 298.186H422.474V322.719H412.004V319.533H419.319V301.372H412.004V298.186ZM410.221 298.186H413.33V326.997H410.221V298.186ZM427.64 303.147H447.666V305.924H427.64V303.147ZM427.64 310.202H447.666V312.979H427.64V310.202ZM425.766 317.348H447.529V320.261H425.766V317.348ZM425.766 295.956H448.58V298.96H429.012V318.941H425.766V295.956ZM436.007 297.321H439.162V318.714H436.007V297.321ZM446.751 317.348H449.906C449.906 317.348 449.906 318.304 449.86 318.759C449.312 329.091 448.717 333.005 447.529 334.416C446.797 335.236 446.02 335.509 444.831 335.645C443.78 335.691 441.814 335.691 439.756 335.6C439.71 334.735 439.39 333.461 438.887 332.641C440.853 332.823 442.636 332.869 443.368 332.869C444.054 332.869 444.511 332.778 444.877 332.323C445.7 331.458 446.248 327.771 446.751 317.894V317.348ZM425.034 322.491L427.594 323.22C427 326.952 425.949 331.412 423.891 334.007L421.376 332.687C423.342 330.229 424.485 326.087 425.034 322.491ZM429.743 323.22L432.167 322.855C432.989 325.723 433.401 329.41 433.31 331.822L430.749 332.232C430.886 329.819 430.475 326.133 429.743 323.22ZM434.773 322.901L437.013 322.173C438.202 324.585 439.299 327.817 439.71 329.865L437.287 330.684C436.967 328.545 435.916 325.313 434.773 322.901ZM439.802 322.127L441.814 321.308C443.139 323.22 444.42 325.768 444.968 327.453L442.819 328.363C442.316 326.588 441.082 324.039 439.802 322.127Z" fill="black"/>
<path d="M449.344 154.838L468.491 156.775L459.97 240.237L512.187 245.521L510.388 263.137L439.025 255.917L449.344 154.838Z" fill="black"/>
<path d="M400.131 256.374L391.529 237.215H338.168L329.42 256.374H308.572L354.351 154.775L367.5 157.317L376.688 162.195L421.125 256.374H400.131ZM383.802 219.363L364.849 176.111L345.895 219.363H383.802Z" fill="black"/>
<path d="M289.767 237.248L291.103 256.069L222.337 265.244L214.375 257.317C211.979 223.583 211.871 208.124 209.475 174.39L217.438 160.366L281.137 154.268L284.841 157.927L285.221 173.255L230.987 179.878L229.722 200.588L284.841 196.708L286.106 214.516L230.987 218.396L232.612 241.271L289.767 237.248Z" fill="black"/>
<path d="M214.375 159.756L212.538 151.829H205.188L207.025 170.732L214.375 159.756Z" fill="#181400"/>
<path d="M183.137 251.829L172.112 251.829L165.411 258.86L136.69 224.037L118.183 223.492L117.174 257.44L97.9375 256.874L100.959 155.174C117.135 155.65 133.307 156.271 149.483 156.748C173.524 157.601 185.729 173.933 185.207 191.487C184.794 205.415 177.963 219.298 158.465 222.645L183.137 251.829ZM148.953 174.592L119.661 173.73L118.696 206.227L147.987 207.09C160.229 207.45 165.717 199.48 165.958 191.356C166.199 183.232 161.049 174.948 148.953 174.592Z" fill="black"/>
<path d="M207.025 268.902L208.862 260.976L211.925 265.244L210.087 270.732L207.025 268.902Z" fill="black"/>
<path d="M377.913 148.171L382.2 156.098L358.925 146.341L377.913 148.171Z" fill="black"/>
<path d="M173.95 255.488L185.588 254.878L175.175 277.439L166.6 269.512L173.95 255.488Z" fill="black"/>
</svg>
