<svg width="201" height="200" viewBox="0 0 201 200" fill="none" xmlns="http://www.w3.org/2000/svg">
<path fill-rule="evenodd" clip-rule="evenodd" d="M172.75 66V125.855L20.75 132L29.164 80.2969L172.75 66ZM32.5088 83.9646L25.3706 127.828L168.862 122.027V70.3879L32.5088 83.9646Z" fill="black"/>
<path d="M64.75 92C64.75 95.3137 62.5114 98 59.75 98C56.9886 98 54.75 95.3137 54.75 92C54.75 88.6863 56.9886 86 59.75 86C62.5114 86 64.75 88.6863 64.75 92Z" fill="black"/>
<path d="M48.75 104C48.75 107.314 46.5114 110 43.75 110C40.9886 110 38.75 107.314 38.75 104C38.75 100.686 40.9886 98 43.75 98C46.5114 98 48.75 100.686 48.75 104Z" fill="black"/>
<path d="M64.75 115C64.75 117.761 62.5114 120 59.75 120C56.9886 120 54.75 117.761 54.75 115C54.75 112.239 56.9886 110 59.75 110C62.5114 110 64.75 112.239 64.75 115Z" fill="black"/>
<path d="M82.75 104C82.75 107.314 80.0637 110 76.75 110C73.4363 110 70.75 107.314 70.75 104C70.75 100.686 73.4363 98 76.75 98C80.0637 98 82.75 100.686 82.75 104Z" fill="black"/>
<path d="M160.75 114.273V78L90.6959 85.6364L88.75 120L160.75 114.273Z" fill="#F2C700"/>
<path d="M163.606 43.3236C163.833 42.4897 165.194 42.6609 165.207 43.5248L165.258 46.9409C165.263 47.2372 165.463 47.5066 165.766 47.6245L169.46 49.0616C170.223 49.3584 170.096 50.3675 169.283 50.4662L165.349 50.9441C165.026 50.9833 164.765 51.1948 164.688 51.4807L163.792 54.7777C163.565 55.6115 162.205 55.4404 162.192 54.5764L162.14 51.1604C162.136 50.8641 161.935 50.5947 161.632 50.4768L157.939 49.0397C157.176 48.7429 157.303 47.7338 158.115 47.6351L162.05 47.1572C162.373 47.118 162.633 46.9065 162.711 46.6206L163.606 43.3236Z" fill="black"/>
<path d="M148.334 45.9885C148.778 44.8212 150.71 45.259 150.607 46.5033L150.2 51.4231C150.165 51.8498 150.415 52.2654 150.834 52.4777L155.944 55.0648C156.999 55.599 156.674 57.0323 155.492 57.0598L149.766 57.1927C149.296 57.2036 148.892 57.471 148.74 57.8713L146.987 62.4864C146.544 63.6537 144.611 63.2159 144.714 61.9716L145.121 57.0517C145.157 56.6251 144.907 56.2094 144.488 55.9972L139.378 53.4101C138.323 52.8759 138.648 51.4426 139.83 51.4151L145.556 51.2822C146.025 51.2713 146.43 51.0038 146.582 50.6036L148.334 45.9885Z" fill="black"/>
<path fill-rule="evenodd" clip-rule="evenodd" d="M124.086 94.4676L125.25 89.2474L128.233 89.9126L127.069 95.1328L132.662 96.3802L131.996 99.3631L126.403 98.1158L123.576 110.793L120.593 110.128L123.42 97.4505L117.827 96.2031L118.493 93.2202L124.086 94.4676Z" fill="black"/>
</svg>
