<svg width="100" height="100" viewBox="0 0 100 100" fill="none" xmlns="http://www.w3.org/2000/svg">
<path d="M10.6695 48.1357L55.1636 23.1633L70.0522 58.4724L48.2796 76.562L17.2375 85.9653L10.6695 48.1357Z" fill="#F2C700"/>
<path fill-rule="evenodd" clip-rule="evenodd" d="M48.3158 17.75V12H51.6842V17.75H58V21.0357H51.6842V35H48.3158V21.0357H42V17.75H48.3158Z" fill="black"/>
<path fill-rule="evenodd" clip-rule="evenodd" d="M82 24V67.8495L50.4609 83L49.3882 40.4903L82 24ZM52.3529 42.3434V78.7718L79.0353 65.9543V28.8513L52.3529 42.3434Z" fill="black"/>
<path fill-rule="evenodd" clip-rule="evenodd" d="M19 24V67.8495L50.4609 83L51.6118 40.4903L19 24ZM48.6471 42.3434V78.7718L21.9647 65.9543V28.8513L48.6471 42.3434Z" fill="black"/>
</svg>
