<svg width="201" height="200" viewBox="0 0 201 200" fill="none" xmlns="http://www.w3.org/2000/svg">
<circle cx="90.25" cy="108.694" r="58" fill="#F2C700"/>
<path fill-rule="evenodd" clip-rule="evenodd" d="M71.6898 122.014C71.5909 124.949 72.0733 128.063 73.2646 131.175C74.4576 134.292 76.2984 137.229 78.7167 139.769C81.13 142.303 84.0434 144.362 87.2944 145.814C90.5443 147.265 94.058 148.075 97.6334 148.196C101.209 148.316 104.769 147.744 108.109 146.515C111.45 145.285 114.496 143.427 117.074 141.061C119.658 138.689 121.692 135.882 123.092 132.853C124.49 129.828 125.181 126.753 125.28 123.819L129.277 123.953C129.161 127.422 128.345 131.022 126.723 134.531C125.1 138.044 122.749 141.281 119.779 144.008C116.814 146.729 113.318 148.86 109.49 150.269C105.664 151.676 101.589 152.331 97.4988 152.193C93.4085 152.056 89.3866 151.128 85.6638 149.466C81.9396 147.804 78.5954 145.442 75.82 142.527C73.0394 139.607 70.9123 136.219 69.529 132.605C68.1468 128.994 67.5752 125.348 67.692 121.879L71.6898 122.014Z" fill="black"/>
<path fill-rule="evenodd" clip-rule="evenodd" d="M71.9065 59.6778L87.4848 62.6735L85.773 71.5753L70.1947 68.5797L66.9851 85.2708L58.0832 83.559L61.2928 66.868L23.4598 59.5929L25.1715 50.691L63.0046 57.9661L66.2141 41.275L75.116 42.9868L71.9065 59.6778Z" fill="black"/>
<path fill-rule="evenodd" clip-rule="evenodd" d="M127.733 65.144L112.35 69.0206L114.566 77.8107L129.948 73.9341L134.102 90.4156L142.892 88.2004L138.738 71.7189L176.097 62.3043L173.881 53.5141L136.523 62.9288L132.37 46.4472L123.58 48.6624L127.733 65.144Z" fill="black"/>
<ellipse cx="63.25" cy="96.6941" rx="7" ry="6" fill="black"/>
<circle cx="132.25" cy="104.694" r="6" fill="black"/>
<path fill-rule="evenodd" clip-rule="evenodd" d="M96.066 131.045L99.0986 109.816L103.058 110.382L100.026 131.61L96.066 131.045Z" fill="black"/>
</svg>
