<svg width="201" height="200" viewBox="0 0 201 200" fill="none" xmlns="http://www.w3.org/2000/svg">
<path d="M136.25 121.426C136.25 145.174 116.998 164.426 93.25 164.426C69.5018 164.426 50.25 145.174 50.25 121.426C50.25 97.6775 69.5018 78.4258 93.25 78.4258C116.998 78.4258 136.25 97.6775 136.25 121.426Z" fill="#F2C700"/>
<path fill-rule="evenodd" clip-rule="evenodd" d="M77.25 141.5C96.58 141.5 111.5 126.756 111.5 107.426C111.5 88.0958 96.58 73 77.25 73C57.92 73 43 88.0958 43 107.426C43 126.756 57.92 141.5 77.25 141.5ZM77.25 144.426C97.6845 144.426 114.25 127.86 114.25 107.426C114.25 86.9912 97.6845 70.4258 77.25 70.4258C56.8155 70.4258 40.25 86.9912 40.25 107.426C40.25 127.86 56.8155 144.426 77.25 144.426Z" fill="black"/>
<path fill-rule="evenodd" clip-rule="evenodd" d="M123.25 159.5C142.58 159.5 157 144.756 157 125.426C157 106.096 142.58 91.5 123.25 91.5C103.92 91.5 89 106.096 89 125.426C89 144.756 103.92 159.5 123.25 159.5ZM123.25 162.426C143.685 162.426 160.25 145.86 160.25 125.426C160.25 104.991 143.685 88.4258 123.25 88.4258C102.815 88.4258 86.25 104.991 86.25 125.426C86.25 145.86 102.815 162.426 123.25 162.426Z" fill="black"/>
<path fill-rule="evenodd" clip-rule="evenodd" d="M76.4427 63.2388L76.2508 58.3562L79.0409 58.2466L79.2327 63.1291L84.464 62.9236L84.5736 65.7136L79.3423 65.9192L79.8083 77.7768L77.0182 77.8864L76.5523 66.0288L71.321 66.2343L71.2114 63.4443L76.4427 63.2388Z" fill="black"/>
<path fill-rule="evenodd" clip-rule="evenodd" d="M124.423 82.1977L124.231 77.3152L127.021 77.2055L127.213 82.0881L132.444 81.8825L132.554 84.6726L127.323 84.8781L127.789 96.7357L124.999 96.8454L124.533 84.9877L119.301 85.1933L119.192 82.4033L124.423 82.1977Z" fill="black"/>
<path fill-rule="evenodd" clip-rule="evenodd" d="M132.274 34L180.25 37.1989L178.478 63.7705L144.437 61.5007L138.387 71.8877L130.556 59.7664L132.274 34ZM134.512 36.5755L133.009 59.1211L138.282 67.2842L143.116 58.9862L176.24 61.1949L177.69 39.4545L134.512 36.5755Z" fill="black"/>
<path fill-rule="evenodd" clip-rule="evenodd" d="M54.8799 49.2886L20.2499 51.5976L21.5288 70.7777L46.1005 69.1393L50.4677 76.637L56.12 67.8874L54.8799 49.2886ZM53.2646 51.1477L54.3498 67.4217L50.5432 73.314L47.0543 67.3243L23.144 68.9186L22.0976 53.2258L53.2646 51.1477Z" fill="black"/>
<path d="M162.211 52.4497C160.956 52.3801 160.069 51.3585 160.143 50.0185C160.219 48.6499 161.212 47.7613 162.467 47.8308C163.693 47.8989 164.61 48.8935 164.534 50.262C164.46 51.6021 163.437 52.5177 162.211 52.4497Z" fill="black"/>
<path d="M153.719 51.9786C152.465 51.909 151.577 50.8874 151.652 49.5474C151.728 48.1789 152.721 47.2902 153.975 47.3598C155.201 47.4278 156.118 48.4224 156.043 49.791C155.968 51.131 154.945 52.0466 153.719 51.9786Z" fill="black"/>
<path d="M145.226 51.5076C143.972 51.438 143.085 50.4164 143.159 49.0764C143.235 47.7078 144.228 46.8192 145.482 46.8887C146.708 46.9567 147.626 47.9514 147.55 49.3199C147.475 50.66 146.452 51.5756 145.226 51.5076Z" fill="black"/>
<path d="M43.2331 61.7362C42.5069 61.772 41.9347 61.2378 41.8964 60.4622C41.8573 59.67 42.375 59.0986 43.1012 59.0627C43.8108 59.0277 44.3988 59.5446 44.4378 60.3368C44.4761 61.1124 43.9427 61.7012 43.2331 61.7362Z" fill="black"/>
<path d="M38.3178 61.9786C37.5916 62.0145 37.0194 61.4802 36.9811 60.7046C36.942 59.9125 37.4598 59.341 38.1859 59.3052C38.8955 59.2702 39.4835 59.7871 39.5225 60.5792C39.5608 61.3548 39.0274 61.9436 38.3178 61.9786Z" fill="black"/>
<path d="M33.4026 62.2212C32.6765 62.2571 32.1042 61.7228 32.0659 60.9472C32.0269 60.1551 32.5446 59.5836 33.2707 59.5478C33.9803 59.5128 34.5683 60.0297 34.6074 60.8218C34.6457 61.5975 34.1122 62.1862 33.4026 62.2212Z" fill="black"/>
</svg>
