<svg width="200" height="200" viewBox="0 0 200 200" fill="none" xmlns="http://www.w3.org/2000/svg">
<path fill-rule="evenodd" clip-rule="evenodd" d="M110 38H62V36H110V38Z" fill="black" fill-opacity="0.2"/>
<path fill-rule="evenodd" clip-rule="evenodd" d="M110 44H62V42H110V44Z" fill="black" fill-opacity="0.2"/>
<path fill-rule="evenodd" clip-rule="evenodd" d="M110 50H62V48H110V50Z" fill="black" fill-opacity="0.2"/>
<path fill-rule="evenodd" clip-rule="evenodd" d="M119.473 133.552C126.363 126.243 130.67 116.881 131.739 106.894L137.705 107.532C136.497 118.822 131.627 129.406 123.839 137.668C116.052 145.93 105.774 151.416 94.5751 153.288C83.3766 155.16 71.8731 153.316 61.8212 148.037C51.7693 142.757 43.7215 134.333 38.9069 124.051L44.3407 121.506C48.5998 130.603 55.719 138.055 64.611 142.725C73.5031 147.395 83.6793 149.027 93.5857 147.37C103.492 145.714 112.584 140.861 119.473 133.552Z" fill="black"/>
<path fill-rule="evenodd" clip-rule="evenodd" d="M52 80H20V76H52V80Z" fill="#181400"/>
<path fill-rule="evenodd" clip-rule="evenodd" d="M152 80H122V76H152V80Z" fill="#181400"/>
<path d="M52 86C52 88.2091 49.7614 90 47 90C44.2386 90 42 88.2091 42 86C42 83.7909 44.2386 82 47 82C49.7614 82 52 83.7909 52 86Z" fill="black"/>
<path d="M152 86C152 88.2091 149.761 90 147 90C144.239 90 142 88.2091 142 86C142 83.7909 144.239 82 147 82C149.761 82 152 83.7909 152 86Z" fill="black"/>
<path d="M171.215 52.4354C171.494 51.4099 173.167 51.6203 173.183 52.6829L173.247 56.884C173.252 57.2483 173.498 57.5797 173.871 57.7247L178.414 59.4921C179.352 59.857 179.196 61.098 178.196 61.2194L173.357 61.8071C172.961 61.8553 172.64 62.1154 172.545 62.4671L171.443 66.5217C171.165 67.5472 169.491 67.3368 169.475 66.2742L169.412 62.0731C169.406 61.7088 169.16 61.3775 168.787 61.2325L164.245 59.4651C163.307 59.1001 163.463 57.8591 164.462 57.7377L169.301 57.15C169.698 57.1018 170.018 56.8417 170.114 56.4901L171.215 52.4354Z" fill="#F2C700"/>
<path d="M159.687 60.6319C160.232 59.1964 162.609 59.7348 162.483 61.2651L161.982 67.3155C161.938 67.8403 162.246 68.3514 162.761 68.6124L169.045 71.7941C170.343 72.4511 169.943 74.2138 168.489 74.2475L161.448 74.411C160.87 74.4244 160.373 74.7533 160.186 75.2455L158.031 80.9213C157.485 82.3568 155.108 81.8184 155.235 80.2881L155.736 74.2376C155.779 73.7129 155.472 73.2018 154.957 72.9408L148.673 69.7591C147.375 69.1021 147.774 67.3394 149.228 67.3057L156.27 67.1422C156.848 67.1288 157.345 66.7999 157.532 66.3076L159.687 60.6319Z" fill="#F2C700"/>
</svg>
