<svg width="201" height="200" viewBox="0 0 201 200" fill="none" xmlns="http://www.w3.org/2000/svg">
<path d="M53.373 118.494L170.87 102.366L180.333 158.238L118.824 174.366H42.333L53.373 118.494Z" fill="#F2C700"/>
<path fill-rule="evenodd" clip-rule="evenodd" d="M90.8105 98.3663L158.333 112.832V145.907L90.9382 168.366L20.333 150.7V116L90.8105 98.3663ZM90.8885 103.141L33.0961 117.601L90.7876 129.411L146.014 114.95L90.8885 103.141ZM153.784 117.723L93.1242 133.606V162.741L153.784 142.525V117.723ZM88.5748 162.981V133.707L24.8825 120.668V147.045L88.5748 162.981Z" fill="black"/>
<path fill-rule="evenodd" clip-rule="evenodd" d="M82.3864 50.7843L81.4717 27.5029L94.7753 26.9802L95.6901 50.2615L120.634 49.2814L121.157 62.585L96.2128 63.5652L98.4344 120.106L85.1308 120.628L82.9092 64.0879L57.9649 65.068L57.4421 51.7644L82.3864 50.7843Z" fill="black"/>
</svg>
