<svg width="200" height="200" viewBox="0 0 200 200" fill="none" xmlns="http://www.w3.org/2000/svg">
<path d="M28.96 82.3701L124.32 64.4501L132 126.53L82.08 144.45H20L28.96 82.3701Z" fill="#F2C700"/>
<path fill-rule="evenodd" clip-rule="evenodd" d="M62.612 53.2308L148.981 51.9804L178.459 90.6475L179.945 143.435L101.713 147.563L76.8777 146.395L33.1705 147.626L31.6803 94.7218L62.612 53.2308ZM79.2055 141.763L98.9608 142.692L92.3898 96.2041L36.5049 97.7783L37.7719 142.758L53.1597 142.325L52.3929 115.1L78.4339 114.367L79.2055 141.763ZM57.8944 142.191L74.466 141.725L73.8325 119.235L57.261 119.701L57.8944 142.191ZM38.8924 92.9725L89.6123 91.5439L63.8813 59.4529L38.8924 92.9725ZM68.6913 57.8799L95.5494 91.3767L171.429 89.2394L146.662 56.7511L68.6913 57.8799ZM173.812 93.9107L97.1545 96.0699L103.747 142.713L175.081 138.948L173.812 93.9107Z" fill="black"/>
</svg>
