<svg width="200" height="200" viewBox="0 0 200 200" fill="none" xmlns="http://www.w3.org/2000/svg">
<path fill-rule="evenodd" clip-rule="evenodd" d="M74 141.5C81.4558 141.5 87.5 135.456 87.5 128C87.5 120.544 81.4558 114.5 74 114.5C66.5442 114.5 60.5 120.544 60.5 128C60.5 135.456 66.5442 141.5 74 141.5ZM74 146C83.9411 146 92 137.941 92 128C92 118.059 83.9411 110 74 110C64.0589 110 56 118.059 56 128C56 137.941 64.0589 146 74 146Z" fill="black"/>
<path fill-rule="evenodd" clip-rule="evenodd" d="M124 125.5C131.456 125.5 137.5 119.456 137.5 112C137.5 104.544 131.456 98.5 124 98.5C116.544 98.5 110.5 104.544 110.5 112C110.5 119.456 116.544 125.5 124 125.5ZM124 130C133.941 130 142 121.941 142 112C142 102.059 133.941 94 124 94C114.059 94 106 102.059 106 112C106 121.941 114.059 130 124 130Z" fill="black"/>
<path fill-rule="evenodd" clip-rule="evenodd" d="M163.676 56H180L170.672 68.8584L168.212 64.0876L146.04 74L144 70.1458L166.172 60.2334L163.676 56Z" fill="#181400"/>
<path d="M70.4545 80L75 87.2632L79.5455 80H93.1818L100 89.6842L75 126L50 89.6842L56.8182 80H70.4545Z" fill="#D9D9D9"/>
<path fill-rule="evenodd" clip-rule="evenodd" d="M56.2576 78H71.7701L75 83.2674L78.2299 78H93.7424L102 89.9705L75 130L48 89.9705L56.2576 78ZM58.4626 82.7946L53.4903 90.0026L75 121.892L96.5097 90.0026L91.5374 82.7946H80.59L75 91.911L69.41 82.7946H58.4626Z" fill="#181400"/>
<path d="M117.636 66L122 72.6316L126.364 66H139.455L146 74.8421L122 108L98 74.8421L104.545 66H117.636Z" fill="#F5D233"/>
<path fill-rule="evenodd" clip-rule="evenodd" d="M104.258 64H119.77L123 68.8622L126.23 64H141.742L150 75.0497L123 112L96 75.0497L104.258 64ZM106.463 68.4258L101.49 75.0793L123 104.516L144.51 75.0793L139.537 68.4258H128.59L123 76.841L117.41 68.4258H106.463Z" fill="#181400"/>
<path fill-rule="evenodd" clip-rule="evenodd" d="M126 82.289L96.1997 98L94 93.711L123.8 78L126 82.289Z" fill="#181400"/>
<path fill-rule="evenodd" clip-rule="evenodd" d="M76 106.18L21.8738 134L20 129.82L74.1262 102L76 106.18Z" fill="#181400"/>
</svg>
