<svg width="200" height="200" viewBox="0 0 200 200" fill="none" xmlns="http://www.w3.org/2000/svg">
<path fill-rule="evenodd" clip-rule="evenodd" d="M97.3732 36L108.573 43.836L107.56 40.7662L138.006 36.7529L180 65.4628L167.753 90.2179L140.21 82.424L150.553 160.245L65.0889 164L70.8404 82.6227L40.1723 93.692L20 71.9462L53.8605 42.7955L86.2363 40.2786L89.8567 45.7668L97.3732 36ZM113.763 44.6936L117.406 55.7392L98.3442 42.4021L89.5659 53.8084L83.8749 45.1812L55.727 47.3695L26.7359 72.3281L41.4811 88.2234L75.9925 75.7669L70.1048 159.07L145.261 155.768L134.654 75.9657L165.307 84.6398L174.01 67.0485L136.858 41.6492L113.763 44.6936Z" fill="#181400"/>
<path d="M90 62.3415L98.7273 48L109.636 59.9512L106.364 68.3171L114 131.659L104.182 146L90 131.659L94.3636 68.3171L90 62.3415Z" fill="#F2C700"/>
<path fill-rule="evenodd" clip-rule="evenodd" d="M98.4727 46L111.55 59.334L107.908 67.9986L116 130.466L104.574 146L88.2354 130.623L92.8555 68.2054L88 62.017L98.4727 46ZM95.0003 70.4747L90.6189 129.666L103.122 141.434L99.829 75.3981L95.0003 70.4747ZM102.133 75.286L105.407 140.948L113.59 129.823L105.925 70.646L102.133 75.286ZM105.73 67.2115L108.815 59.871L98.8311 49.6909L90.8543 61.8907L94.9 67.0471L100.881 73.1449L105.73 67.2115Z" fill="white"/>
</svg>
