<svg width="200" height="200" viewBox="0 0 200 200" fill="none" xmlns="http://www.w3.org/2000/svg">
<path d="M56 93.0141V61L102.5 71L150 41V77.2958C125.534 98.2535 104.932 107.423 56 93.0141Z" fill="black"/>
<path d="M29.5 49L91.8824 20L165 23L102 64L29.5 49Z" fill="black"/>
<path fill-rule="evenodd" clip-rule="evenodd" d="M103.948 153.132L103.613 144.606L108.485 144.414L108.82 152.94L117.955 152.581L118.147 157.453L109.012 157.812L109.825 178.518L104.953 178.709L104.14 158.003L95.0049 158.362L94.8135 153.49L103.948 153.132Z" fill="#F2C700"/>
<path fill-rule="evenodd" clip-rule="evenodd" d="M103.181 94C103.182 93.9999 103.182 93.9998 103.54 95.2432C103.897 96.4867 103.897 96.4866 103.898 96.4866L103.897 96.4866L103.896 96.4871L103.886 96.4898L103.842 96.5019C103.802 96.5129 103.742 96.53 103.661 96.553C103.501 96.5992 103.261 96.6696 102.953 96.7643C102.336 96.954 101.444 97.2411 100.358 97.6282C98.1823 98.4032 95.2378 99.5742 92.1545 101.158C85.9105 104.366 79.4285 109.099 77.2392 115.396C76.3175 118.046 76.6619 119.279 77.1925 119.87C77.7881 120.534 79.101 120.98 81.4809 120.941C85.9385 120.869 92.4995 119.158 99.5111 117.33C99.8493 117.242 100.189 117.153 100.529 117.065C107.767 115.18 115.384 113.254 120.943 113.334C123.716 113.375 126.285 113.912 128.005 115.499C129.8 117.154 130.347 119.633 129.793 122.792C128.521 130.05 122.621 136.379 117.297 140.793C114.604 143.025 111.99 144.823 110.051 146.061C109.081 146.681 108.277 147.163 107.713 147.491C107.431 147.655 107.209 147.781 107.056 147.866C106.979 147.909 106.92 147.942 106.879 147.964L106.832 147.99L106.819 147.997L106.815 147.999L106.814 148C106.813 148 106.813 148 106.165 146.872C105.517 145.744 105.517 145.744 105.517 145.744L105.517 145.744L105.518 145.743L105.527 145.739L105.565 145.718C105.6 145.699 105.653 145.67 105.723 145.631C105.863 145.552 106.072 145.434 106.339 145.279C106.875 144.967 107.647 144.505 108.583 143.907C110.456 142.71 112.975 140.977 115.563 138.832C120.801 134.489 126.058 128.671 127.164 122.36C127.637 119.663 127.073 118.205 126.166 117.368C125.184 116.462 123.463 115.953 120.903 115.915C115.798 115.841 108.587 117.64 101.222 119.558C100.814 119.664 100.407 119.77 99.9986 119.877C93.1821 121.656 86.3285 123.445 81.5255 123.522C79.0239 123.563 76.609 123.157 75.1791 121.563C73.6842 119.897 73.7055 117.466 74.7118 114.572C77.2474 107.28 84.5475 102.143 90.9044 98.8778C94.1216 97.2251 97.1822 96.0088 99.4367 95.2056C100.565 94.8035 101.495 94.5039 102.146 94.3039C102.471 94.2039 102.727 94.1288 102.903 94.0782C102.991 94.053 103.059 94.0338 103.106 94.0207L103.16 94.0057L103.175 94.0016L103.18 94.0004L103.181 94Z" fill="black"/>
</svg>
