<svg width="201" height="200" viewBox="0 0 201 200" fill="none" xmlns="http://www.w3.org/2000/svg">
<path d="M77.6441 180L52.75 41.4765L131.762 20L144.75 142.416L77.6441 180Z" fill="#F2C700"/>
<path d="M140.75 134C140.75 139.523 136.273 144 130.75 144C125.227 144 120.75 139.523 120.75 134C120.75 128.477 125.227 124 130.75 124C136.273 124 140.75 128.477 140.75 134Z" fill="black" fill-opacity="0.8"/>
<path fill-rule="evenodd" clip-rule="evenodd" d="M93.0325 74.0818L92.6218 63.6279L98.5954 63.3932L99.0062 73.8471L110.207 73.407L110.442 79.3806L99.2409 79.8207L100.238 105.209L94.2648 105.444L93.2672 80.0555L82.0666 80.4956L81.8319 74.5219L93.0325 74.0818Z" fill="black"/>
<path d="M64.75 138C64.75 143.523 59.8251 148 53.75 148C47.6749 148 42.75 143.523 42.75 138C42.75 132.477 47.6749 128 53.75 128C59.8251 128 64.75 132.477 64.75 138Z" fill="black" fill-opacity="0.8"/>
<path d="M84.75 134C84.75 139.523 80.2728 144 74.75 144C69.2272 144 64.75 139.523 64.75 134C64.75 128.477 69.2272 124 74.75 124C80.2728 124 84.75 128.477 84.75 134Z" fill="black" fill-opacity="0.8"/>
<path d="M102.75 138C102.75 143.523 97.8251 148 91.75 148C85.6749 148 80.75 143.523 80.75 138C80.75 132.477 85.6749 128 91.75 128C97.8251 128 102.75 132.477 102.75 138Z" fill="black" fill-opacity="0.8"/>
<path d="M76.75 149C76.75 156.18 70.9297 162 63.75 162C56.5703 162 50.75 156.18 50.75 149C50.75 141.82 56.5703 136 63.75 136C70.9297 136 76.75 141.82 76.75 149Z" fill="black"/>
<path d="M94.75 147C94.75 154.18 88.9297 160 81.75 160C74.5703 160 68.75 154.18 68.75 147C68.75 139.82 74.5703 134 81.75 134C88.9297 134 94.75 139.82 94.75 147Z" fill="black"/>
<path d="M122.75 134C122.75 139.523 117.825 144 111.75 144C105.675 144 100.75 139.523 100.75 134C100.75 128.477 105.675 124 111.75 124C117.825 124 122.75 128.477 122.75 134Z" fill="black" fill-opacity="0.8"/>
<path d="M118.75 151C118.75 158.18 112.93 164 105.75 164C98.5703 164 92.75 158.18 92.75 151C92.75 143.82 98.5703 138 105.75 138C112.93 138 118.75 143.82 118.75 151Z" fill="black"/>
<path d="M136.75 145C136.75 152.18 130.93 158 123.75 158C116.57 158 110.75 152.18 110.75 145C110.75 137.82 116.57 132 123.75 132C130.93 132 136.75 137.82 136.75 145Z" fill="black"/>
<path d="M158.75 147C158.75 156.389 151.139 164 141.75 164C132.361 164 124.75 156.389 124.75 147C124.75 137.611 132.361 130 141.75 130C151.139 130 158.75 137.611 158.75 147Z" fill="black"/>
</svg>
