<svg width="79" height="64" viewBox="0 0 79 64" fill="none" xmlns="http://www.w3.org/2000/svg">
<path d="M45.3737 2.02582L46.821 25.385H57.3675L54.3311 63.995H70.8329L78.9395 0L45.3737 2.02582ZM70.8085 24.7329L65.7577 24.4144L67.0192 16.7043L71.7521 17.3464L70.8036 24.7379L70.8085 24.7329ZM67.337 13.8074L67.6499 7.05802H73.3314L72.0748 14.126L67.337 13.8025V13.8074Z" fill="#B1B3B6"/>
<path d="M26.7402 6.17702H0L7.29989 64H23.8017L19.631 25.39H26.7402V6.17702ZM14.5215 23.0854L8.26799 23.9365L7.4319 14.1758L14.9371 13.7527L14.5215 23.0854Z" fill="#58595B"/>
<path d="M46.8357 25.39H26.7402V64H49.2315L46.8357 25.39Z" fill="#FFCB05"/>
<path d="M46.821 25.39L49.2119 64H54.3311L57.3675 25.39H46.821Z" fill="white"/>
<path d="M71.7521 17.3414L67.0192 16.7043L65.7528 24.4144L70.8036 24.7379L71.7521 17.3414Z" fill="white"/>
<path d="M73.3265 7.06299H67.645L67.3321 13.8124L72.0699 14.131L73.3265 7.06299Z" fill="white"/>
<path d="M14.9372 13.7527L7.43191 14.1758L8.268 23.9365L14.5216 23.0854L14.9372 13.7527Z" fill="white"/>
<path d="M19.6261 25.39L23.8017 64H26.7402V25.39H19.6261Z" fill="white"/>
<path d="M47.5935 37.8236H42.7188V32.3335H39.8096V37.8236H34.4117V40.7852H39.8096V53.4727H42.7188V40.7852H47.7793L47.5935 37.8236Z" fill="white"/>
</svg>
