<?xml version="1.0" encoding="UTF-8"?>
<svg id="Layer_2" data-name="Layer 2" xmlns="http://www.w3.org/2000/svg" viewBox="0 0 387.85 61.04">
  <defs>
    <style>
      .cls-1 {
        fill: #fff;
      }

      .cls-2 {
        fill: #b1b3b6;
      }

      .cls-3 {
        fill: #231f20;
      }

      .cls-4 {
        fill: #58595b;
      }

      .cls-5 {
        fill: #ffcb05;
      }
    </style>
  </defs>
  <g id="_圖層_1" data-name="圖層 1">
    <g>
      <path class="cls-2" d="M43.23,1.9l1.38,21.87h10.05l-2.89,36.14h15.72L75.22,0l-31.99,1.9Zm24.23,21.25l-4.81-.3,1.2-7.22,4.51,.6-.9,6.92Zm-3.31-10.23l.3-6.32h5.41l-1.2,6.62-4.51-.3Z"/>
      <path class="cls-4" d="M25.48,5.78H0L6.96,59.9h15.72l-3.98-36.14h6.78V5.78Zm-11.64,15.83l-5.96,.79-.8-9.14,7.15-.4-.4,8.74Z"/>
      <polygon class="cls-5" points="44.63 23.76 25.48 23.76 25.48 59.9 46.91 59.9 44.63 23.76"/>
      <polygon class="cls-1" points="44.61 23.76 46.89 59.9 51.77 59.9 54.66 23.76 44.61 23.76"/>
      <polygon class="cls-1" points="68.37 16.23 68.37 16.23 63.86 15.63 63.86 15.63 63.86 15.63 62.65 22.85 62.65 22.85 62.65 22.85 67.47 23.15 68.37 16.23 68.37 16.23"/>
      <polygon class="cls-1" points="69.87 6.61 69.87 6.61 64.46 6.61 64.16 12.93 64.16 12.93 64.16 12.93 68.67 13.23 69.87 6.61 69.87 6.61"/>
      <path class="cls-1" d="M14.23,12.87h0l-7.15,.4,.8,9.14h0l5.96-.79,.4-8.74h0Zm-6.35,9.53l.7-.09-.7,.09h0Z"/>
      <polygon class="cls-1" points="18.7 23.76 22.68 59.9 25.48 59.9 25.48 23.76 18.7 23.76"/>
      <polygon class="cls-1" points="45.35 35.4 40.7 35.4 40.7 30.26 37.93 30.26 37.93 35.4 32.79 35.4 32.79 38.17 37.93 38.17 37.93 50.05 40.7 50.05 40.7 38.17 45.53 38.17 45.35 35.4"/>
    </g>
    <g>
      <g>
        <path class="cls-3" d="M164.4,47.26l-17.08,1.16c-.15-.58-.31-1.23-.5-1.94l1.99-.11c1.63-1.91,3.17-4.03,4.61-6.37l1.57,1.07c-.83,1.43-2.02,3.13-3.56,5.12l11.26-.68c-1.4-1.4-2.32-2.28-2.76-2.65l1.42-1.36c2.68,2.48,4.84,4.7,6.47,6.67l-1.53,1.25c-.57-.7-1.2-1.42-1.9-2.17Zm1.27,12.46c0,.37-.18,.55-.55,.55h-15.79c-.35,0-.52-.18-.52-.55v-8.79c0-.35,.17-.52,.52-.52h15.79c.37,0,.55,.17,.55,.52v8.79Zm-2.1-7.41h-12.68c-.07,0-.1,.03-.09,.09v5.86c0,.06,.03,.1,.09,.11h12.68c.07-.01,.11-.05,.11-.11v-5.86c-.01-.06-.05-.09-.11-.09Z"/>
        <path class="cls-3" d="M169.1,47.3l1.14-1.31c.83,.6,1.74,1.42,2.71,2.47l-1.22,1.27c-1.04-1.09-1.91-1.9-2.62-2.43Zm2.34,4.42l1.71,.09c-.25,3.47-.99,6.31-2.23,8.51l-1.79-.54c1.41-2.48,2.19-5.16,2.32-8.05Zm-2.06-9.51l1.07-1.38c.84,.53,1.76,1.28,2.73,2.25l-1.16,1.31c-1.05-1.01-1.93-1.73-2.65-2.19Zm4.13,6.38l1.31,.31c-.09,.6-.27,1.51-.54,2.73l-1.31-.42c.23-.79,.42-1.66,.55-2.62Zm1.88-.85l-2.01,.28c-.06-.42-.18-.9-.37-1.42l1.09-.15c.34-.34,.69-.73,1.05-1.18-.69-.6-1.36-1.06-2.03-1.38,.22-.44,.44-.87,.66-1.31,.03,0,.09,.03,.2,.09,.44-.77,.84-1.62,1.2-2.54,.42,.23,.85,.46,1.29,.7-.28,.67-.72,1.54-1.33,2.6,.25,.19,.52,.4,.83,.63,.39-.7,.7-1.38,.92-2.04l1.4,.48c-.26,.89-1.01,2.1-2.23,3.63l1.29-.2c-.09-.3-.18-.57-.26-.79l1.33-.39c.34,.79,.6,1.77,.79,2.95l-1.36,.33c-.04-.23-.09-.44-.13-.63l-.85,.16v4.31h-1.47v-4.13Zm-.35,10.34l-.22,.79c-.49-.19-.98-.38-1.46-.57l.96-3.59c.12-.31,.31-.43,.59-.37h12.07v-.57c-.01-.1-.07-.15-.17-.15h-12.62v-1.38h13.97c.25,.01,.37,.14,.37,.37v3.74h-1.55v-.63h-11c-.23,.03-.35,.2-.35,.5l-.15,.48h13.64c.38,.02,.56,.18,.55,.5-.13,1.47-.44,2.45-.92,2.93-.19,.19-.39,.36-.61,.5-1.02,.48-4.39,.53-10.12,.13l-.09-1.6c1.98,.22,3.59,.34,4.83,.35,2.87,.04,4.5-.11,4.9-.46,.12-.19,.2-.52,.24-1.01-.02,.02-.07,.02-.18,.02h-12.68Zm2.21-9.16l1.36-.29c.23,.7,.42,1.49,.57,2.36l-1.36,.2c-.19-1.04-.38-1.79-.57-2.27Zm1.64-6.69h5.18v1.12h-5.18v-1.12Zm.35-1.66h4.57v1.12h-4.57v-1.12Zm.18,3.32h4.31v1.12h-4.31v-1.12Zm4.31,7.41c-.01,.12-.07,.17-.18,.17h-3.94c-.1-.01-.15-.07-.15-.17v-3.85c0-.1,.05-.16,.15-.16h3.94c.12,0,.18,.05,.18,.16v3.85Zm-4.22-5.75h4.13v1.12h-4.13v-1.12Zm2.95,2.86h-1.75s-.06,.03-.04,.04v1.84s0,.05,.04,.06h1.75s.07-.05,.07-.06v-1.84s-.02-.04-.07-.04Zm1.97-.09l1.33,.28c-.1,.99-.28,1.99-.55,3l-1.31-.37c.22-.85,.39-1.82,.52-2.91Zm1.82-.7l-1.95,.2c-.04-.42-.15-.9-.33-1.42l1.16-.13c.28-.31,.58-.64,.9-1.01-.63-.76-1.28-1.38-1.95-1.86,.31-.41,.6-.81,.87-1.2,.03,0,.07,.03,.13,.09,.39-.69,.77-1.41,1.14-2.16,.44,.26,.86,.51,1.27,.74-.29,.61-.75,1.41-1.38,2.38,.22,.22,.47,.48,.74,.79,.41-.73,.73-1.43,.96-2.1l1.4,.48c-.28,.91-1.01,2.11-2.21,3.61l1.25-.13c-.12-.35-.2-.58-.24-.68l1.31-.4c.47,1.24,.77,2.17,.9,2.78l-1.33,.3c-.04-.19-.09-.38-.15-.57l-1.03,.13v4.48h-1.46v-4.33Zm1.86,1.05l1.33-.33c.5,1.78,.75,2.74,.77,2.89l-1.33,.24c-.16-.76-.42-1.69-.76-2.8Z"/>
        <path class="cls-3" d="M211.72,59.88c0,.32-.16,.48-.48,.48h-18.37c-.31,0-.46-.16-.46-.48v-18.54c0-.31,.15-.46,.46-.46h18.37c.32,0,.48,.15,.48,.46v18.54Zm-4.11-17.27c.16,.47,.33,.97,.5,1.51h.98v1.73h-4.33c.22,1.88,.55,3.75,.98,5.6,.57-1.15,1.07-2.68,1.51-4.57l1.68,.44c-.66,2.48-1.45,4.53-2.38,6.14-.04,.06-.09,.13-.13,.22,.22,.64,.44,1.23,.68,1.77,.23,.51,.38,.76,.44,.75,.12-.03,.18-.18,.2-.46,.04-.63,.02-1.4-.07-2.32l1.71,.39c-.07,1.81-.25,3.1-.52,3.89-.2,.33-.4,.53-.59,.59-.19,.09-.39,.12-.61,.11-.44-.06-.86-.33-1.27-.81-.36-.57-.72-1.3-1.07-2.19-.83,1.12-1.65,2.1-2.45,2.93l-1.46-1.09c1.4-1.32,2.48-2.59,3.24-3.78-.7-2.13-1.23-4.66-1.6-7.61h-7.7v-1.73h7.5c-.07-.53-.12-1.03-.13-1.51h-8.2c-.13,0-.2,.07-.2,.2v15.63c0,.13,.07,.2,.2,.2h15.11c.13,0,.2-.06,.2-.2v-15.63c0-.13-.07-.2-.2-.2h-2.01Zm-4.96,11.04l.48,1.75c-1.83,.61-4.31,1.09-7.41,1.44l-.44-1.77c3.08-.38,5.53-.85,7.37-1.42Zm-.02-.61c-.01,.16-.1,.24-.24,.24h-6.78c-.14-.01-.22-.09-.22-.24v-5.73c0-.14,.07-.22,.22-.22h6.78c.16,0,.24,.07,.24,.22v5.73Zm-1.81-4.4h-3.63c-.06,0-.08,.02-.07,.07v2.93s0,.07,.07,.09h3.63c.06-.02,.09-.04,.09-.09v-2.93s-.03-.07-.09-.07Zm5.47-4.53c-.19-.6-.38-1.1-.57-1.51h-1.27c.03,.48,.07,.98,.13,1.51h1.7Z"/>
        <path class="cls-3" d="M224.9,48.97c-.93,.87-2.01,1.69-3.24,2.45l-1.29-1.27c1.47-.8,2.54-1.53,3.19-2.19-.57-.55-1.49-1.31-2.76-2.28-.17,.15-.35,.29-.52,.44l-.76-.89-.57,2.12c-.12,.32-.09,.58,.09,.77,.79,1.15,1.32,2.24,1.6,3.26,.38,1.63,.28,2.88-.31,3.76-.33,.45-.72,.73-1.16,.83-.69,.15-1.55,.11-2.6-.11v5.03h-1.82v-19.9c0-.09,.02-.15,.07-.2,.03-.03,.09-.04,.17-.04h4.33l1.2,.74-.81,3c.64-.51,1.14-.99,1.48-1.44,.47-.69,.94-1.63,1.42-2.82h1.66c-.09,.22-.16,.42-.22,.61h3.54l1.27,.66c-.04,.13-.09,.26-.13,.39,.55,1.43,1.12,2.61,1.68,3.54,.83-.92,1.58-1.8,2.25-2.64,.06,.03,.04,.04-.07,.04h-2.69v-1.64h4.4l.66,1.22c-.85,1.36-2.04,2.81-3.59,4.35,.89,1.02,2.1,2.06,3.63,3.1l-1.44,1.2c-.79-.58-1.52-1.21-2.19-1.88v1.51h-6.49v-1.73Zm-6.84-6.58h-1.33c-.06,.01-.09,.03-.11,.04-.03,.02-.04,.05-.04,.11v11.39c.58,.35,1.16,.48,1.73,.39,.25-.04,.42-.16,.52-.35,.54-1.04-.05-3.03-1.77-5.97,.04-.06,.06-.11,.06-.15l1.36-5.01c.09-.32-.05-.47-.41-.46Zm5.55,12.75l1.44,1.12c-1.53,1.91-3.06,3.23-4.59,3.98l-1.18-1.46c1.73-.89,3.18-2.1,4.33-3.63Zm3.74-.85h-5.77v-1.81h12.88v1.81h-5.29v4.55c-.03,.83-.35,1.44-.96,1.84-.64,.44-1.93,.39-3.87-.13l.04-1.88c1.54,.46,2.47,.57,2.78,.3,.13-.12,.2-.31,.2-.59v-4.09Zm-4.18-8.77c.57,.47,1.07,.9,1.51,1.31,.22-.29,.44-.59,.66-.9,.04-.1,.09-.18,.15-.24-1.24-.73-2.29-1.25-3.17-1.55-.13,.13-.25,.27-.35,.41,.32,.25,.72,.57,1.2,.96Zm1.77-1.93c.45,.22,.88,.45,1.29,.68,.16-.35,.33-.72,.5-1.12,.09-.45,.04-.68-.13-.68h-3.21c-.06,.09-.11,.18-.15,.29,.39,.19,.96,.46,1.71,.83Zm.04,5.29h6.12c-1.31-1.38-2.36-2.91-3.15-4.57-.82,1.93-1.77,3.41-2.86,4.46-.06,.03-.09,.07-.11,.11Zm5.49,7.33l1.44-1.12c.99,1.05,2,2.43,3.02,4.15l-1.51,1.05c-1.09-1.81-2.08-3.17-2.95-4.09Z"/>
        <path class="cls-3" d="M245.85,58.72v-2.29h-4.77v-1.64c-1.59,1.18-2.76,1.93-3.52,2.25l-1.16-1.57c1.79-.82,3.33-1.84,4.61-3.06h-4.4v-1.73h3.8v-7.5h-3.28v-1.64h3.28v-1.31h1.9v1.31h8.94v-1.31h1.9v1.31h3.41v1.64h-3.41v7.5h3.94v1.73h-4.75c1.2,1.19,2.89,2.26,5.1,3.19l-1.36,1.55c-1.47-.74-2.71-1.53-3.72-2.36v1.64h-4.64v2.29h8.66v1.73h-19.09v-1.73h8.53Zm1.9-5.38v1.36h4.55c-.77-.68-1.54-1.45-2.3-2.29h-6.5c-.84,.9-1.62,1.67-2.34,2.29h4.68v-1.36h1.9Zm-5.42-8.7h8.94v-1.46h-8.94v1.46Zm0,3.06h8.94v-1.51h-8.94v1.51Zm0,2.97h8.94v-1.42h-8.94v1.42Z"/>
        <path class="cls-3" d="M260.89,45.95l1.27,.92c-.51,.89-1.25,1.87-2.23,2.93l-1.22-.98c1-1.12,1.73-2.08,2.19-2.87Zm2.54-.68h-4.33v-1.46h4.33v-3.61h1.73v.98h3.59v1.47h-3.59v1.16h4.02v1.46h-4.02v2.95c-.01,.53-.13,.94-.35,1.25-.21,.28-.44,.48-.7,.61-.5,.19-1.25,.11-2.27-.24l-.11-1.79c.81,.22,1.27,.3,1.38,.24,.22-.16,.33-.31,.33-.46v-2.56Zm13.89,14.91c0,.18-.09,.26-.26,.26h-15.66c-.16,0-.24-.09-.24-.26v-9.45c.01-.16,.09-.24,.24-.24h15.66c.17,.02,.26,.1,.26,.24v9.45Zm-1.9-2.62h-12.36v1.25s0,.07,.07,.09h12.2c.06-.02,.09-.04,.09-.09v-1.25Zm-12.36-4.27h12.36v-1.16c0-.06-.03-.09-.09-.09h-12.2c-.06,0-.08,.03-.07,.09v1.16Zm0,2.71h12.36v-1.16h-12.36v1.16Zm2.71-8.96l1.4-.83c.48,.69,.93,1.39,1.33,2.1l-1.44,.72c-.5-.88-.93-1.54-1.29-1.99Zm8.33,.98c-1.76,1.07-3.13,1.75-4.11,2.06l-1.03-1.62c1.52-.42,2.72-.88,3.61-1.38,.06-.06,.13-.09,.22-.11-.84-.79-1.73-1.76-2.65-2.91l1.33-1.07c.96,1.25,1.86,2.26,2.71,3.02,1.09-.9,1.88-1.88,2.36-2.93,.09-.22-.03-.32-.35-.3h-5.86v-1.73h7.28l.94,.92c-.73,2.16-1.77,3.83-3.13,5.01,1.15,.71,2.59,1.34,4.31,1.88l-1.03,1.57c-1.66-.6-3.2-1.4-4.61-2.41Z"/>
        <path class="cls-3" d="M286.56,55.11c-.28-.53-.66-1.14-1.14-1.84h.92l1.62-1.55c.04-.07,.06-.14,.04-.2-.03-.06-.09-.09-.17-.09h-2.21c-1.07,.82-2.17,1.58-3.32,2.3l-1.16-1.42c2.3-1.27,4.27-2.7,5.9-4.29h-5.64v-1.73h4.11v-2.3h-3.41v-1.73h3.41v-2.05h1.82v2.05h3.37v1.05c.42-.71,.87-1.53,1.36-2.45l1.51,.83c-.79,1.44-1.75,2.97-2.88,4.59h1.77v1.73h-3.19c-.23,.25-.46,.49-.68,.72-.39,.39-.79,.77-1.18,1.13h2.75l1.2,1.12-3.48,3.02c.12,.23,.24,.47,.37,.7,1.79-.44,3.16-.83,4.09-1.18l.55,1.73c-.86,.32-2.19,.71-4,1.16,.38,1.41,.42,2.43,.11,3.06-.23,.51-.51,.86-.83,1.05-1.09,.58-2.65,.53-4.66-.17l.02-1.99c1.19,.54,2.04,.82,2.54,.83,.53,.03,.84,0,.94-.11,.17-.14,.29-.34,.35-.57,.1-.53,.06-1.09-.13-1.71-2.07,.45-3.79,.79-5.16,1.01l-.5-1.77c1.46-.23,3.13-.55,5.01-.94Zm3.11-10.17c.19-.3,.39-.62,.61-.94h-2.95v2.3h1.29c.38-.45,.73-.9,1.05-1.36Zm4.83,4.48c-.31,.79-.62,1.49-.94,2.12l-1.82-.48c1.74-3.42,2.6-7,2.6-10.71l1.81,.04c-.04,.73-.09,1.43-.15,2.1h5.97v1.82h-1.4v1.27c-.02,1.93-.38,4.01-1.09,6.25-.38,.93-.86,1.97-1.44,3.11,.9,1.41,2.26,2.96,4.07,4.63l-1.68,1.01c-1.44-1.54-2.57-2.94-3.37-4.18-1.34,1.66-3.13,3.15-5.38,4.46l-1.31-1.44c2.43-1.17,4.35-2.73,5.75-4.7-.73-1.44-1.27-3.2-1.62-5.27-.01-.02-.01-.02,0-.02Zm1.66,.22c.2,1.22,.53,2.37,.96,3.43,1.11-2.14,1.68-4.64,1.73-7.5v-1.27h-2.97c-.12,1.98-.02,3.76,.28,5.33Z"/>
        <path class="cls-3" d="M317.99,43.94v1.42h-7.72v-1.44c-1.69,.6-3.7,1.14-6.04,1.64l-.66-1.82c5.06-.73,8.47-1.92,10.23-3.58l1.62,.66c-.06,.04-.11,.1-.15,.15,2.81,1.47,5.9,2.39,9.27,2.75l-.7,1.82c-1.76-.36-3.72-.9-5.86-1.6Zm4.63,8.04c-.01,.16-.09,.24-.24,.24h-16.84c-.15-.01-.22-.09-.22-.24v-5.38c0-.15,.07-.22,.22-.22h16.84c.16,0,.24,.07,.24,.22v5.38Zm-1.05,8.55c0,.17-.09,.26-.26,.26h-14.61c-.16,0-.24-.09-.24-.26v-7c.02-.16,.09-.24,.24-.24h14.61c.17,.02,.26,.1,.26,.24v7Zm-10.23-10.76l-1.49,.9h3.34v-2.73h-6.08c-.06,0-.08,.02-.06,.06v2.58s0,.07,.06,.09h2.71c-.42-.76-.79-1.33-1.12-1.73l1.46-.96c.38,.45,.77,1.05,1.16,1.79Zm8.33,8.05h-11.31v1.33s0,.07,.07,.09h11.15c.06-.01,.09-.04,.09-.09v-1.33Zm-11.31-1.55h11.31v-1.33c0-.06-.03-.09-.09-.09h-11.15c-.06,0-.08,.03-.07,.09v1.33Zm9.03-12.55c-1.08-.45-2.21-.99-3.41-1.62-.57,.38-1.62,.92-3.15,1.62h6.56Zm1.82,5.16c-.26,.57-.6,1.17-1,1.79h2.6c.06-.02,.09-.04,.09-.09v-2.58s-.03-.06-.09-.06h-5.88v2.73h1.16c.74-1.06,1.28-1.95,1.6-2.67l1.53,.87Z"/>
      </g>
      <g>
        <path class="cls-3" d="M91.23,28.76h-2.64V10.01h-5.02v-2.41h12.68v2.41h-5.02V28.76Z"/>
        <path class="cls-3" d="M107.57,28.76h-2.52v-2.05h-.06c-1.01,1.49-2.58,2.5-4.46,2.5-4.01,0-6.29-3.34-6.29-7.1s2.39-6.87,6.2-6.87c1.94,0,3.51,1.01,4.54,2.58h.06v-2.19h2.52v13.13Zm-2.38-6.57c0-2.55-1.54-4.71-4.27-4.71s-4.15,2.27-4.15,4.71,1.49,4.77,4.15,4.77,4.27-2.19,4.27-4.77Z"/>
        <path class="cls-3" d="M114.42,9.62c0,.95-.79,1.71-1.74,1.71s-1.74-.76-1.74-1.71,.79-1.77,1.74-1.77,1.74,.79,1.74,1.77Zm-.48,19.14h-2.53V15.63h2.53v13.13Z"/>
        <path class="cls-3" d="M122.47,23.99l3.87-9.09,3.85,9.09,3.82-8.36h2.86l-6.68,13.58-3.85-8.78-3.87,8.78-6.68-13.58h2.86l3.82,8.36Z"/>
        <path class="cls-3" d="M150.17,28.76h-2.52v-2.05h-.06c-1.01,1.49-2.58,2.5-4.46,2.5-4.01,0-6.29-3.34-6.29-7.1s2.38-6.87,6.2-6.87c1.94,0,3.51,1.01,4.54,2.58h.06v-2.19h2.52v13.13Zm-2.38-6.57c0-2.55-1.54-4.71-4.27-4.71s-4.15,2.27-4.15,4.71,1.49,4.77,4.15,4.77,4.27-2.19,4.27-4.77Z"/>
        <path class="cls-3" d="M155.98,17.4h.06c.79-1.41,2.36-2.16,3.96-2.16,3.7,0,4.66,2.5,4.66,5.7v7.83h-2.53v-7.52c0-2.25-.31-3.76-2.89-3.76-3.26,0-3.26,2.86-3.26,5.25v6.04h-2.53V15.63h2.53v1.77Z"/>
        <path class="cls-3" d="M191.93,11.64c-1.51-1.35-3.59-2.08-5.58-2.08-4.74,0-8.36,3.96-8.36,8.64s3.59,8.59,8.31,8.59c2.08,0,4.07-.79,5.64-2.19v3.12c-1.63,.95-3.7,1.49-5.56,1.49-6.03,0-11.03-4.8-11.03-10.92s5.02-11.14,11.25-11.14c1.85,0,3.73,.45,5.33,1.43v3.06Z"/>
        <path class="cls-3" d="M197.32,4.4v12.99h.06c.79-1.41,2.36-2.16,3.96-2.16,3.7,0,4.66,2.5,4.66,5.7v7.83h-2.53v-7.52c0-2.25-.31-3.76-2.89-3.76-3.26,0-3.26,2.86-3.26,5.25v6.04h-2.52V4.4h2.52Z"/>
        <path class="cls-3" d="M211.6,15.63v7.27c0,2.1,.53,3.96,3.03,3.96s3.03-1.86,3.03-3.96v-7.27h2.52v7.55c0,3.59-1.68,6.04-5.56,6.04s-5.56-2.44-5.56-6.04v-7.55h2.53Z"/>
        <path class="cls-3" d="M225.55,17.76h.08c.62-1.54,1.91-2.53,3.59-2.53,.73,0,1.46,.25,2.08,.64l-1.15,2.3c-.45-.39-.96-.53-1.54-.53-2.72,0-3.06,2.53-3.06,4.66v6.45h-2.52V15.63h2.52v2.13Z"/>
        <path class="cls-3" d="M242.08,19.36c-1.01-1.15-2.25-1.77-3.76-1.77-2.47,0-4.38,2.19-4.38,4.6,0,2.69,1.88,4.66,4.55,4.66,1.46,0,2.64-.68,3.59-1.74v3.23c-1.15,.62-2.3,.87-3.62,.87-3.87,0-7.04-2.97-7.04-6.9s3.14-7.07,7.18-7.07c1.18,0,2.47,.28,3.48,.87v3.25Z"/>
        <path class="cls-3" d="M247.33,4.4v12.99h.06c.79-1.41,2.36-2.16,3.96-2.16,3.7,0,4.66,2.5,4.66,5.7v7.83h-2.52v-7.52c0-2.25-.31-3.76-2.89-3.76-3.25,0-3.25,2.86-3.25,5.25v6.04h-2.53V4.4h2.53Z"/>
        <path class="cls-3" d="M260.72,22.61c.03,2.25,1.54,4.35,3.96,4.35,1.94,0,2.98-.98,3.93-2.55l2.13,1.21c-1.24,2.27-3.53,3.59-6.09,3.59-4.01,0-6.46-3.03-6.46-6.9s2.16-7.07,6.4-7.07,6.14,3.09,6.14,6.99v.39h-10.02Zm7.49-1.91c-.31-1.96-1.6-3.28-3.62-3.28s-3.42,1.4-3.73,3.28h7.35Z"/>
        <path class="cls-3" d="M278.17,18.63c-.31-.64-.95-1.15-1.68-1.15s-1.37,.56-1.37,1.29c0,1.15,1.52,1.65,3.06,2.36,1.54,.7,3.03,1.66,3.03,3.73,0,2.5-2.08,4.35-4.52,4.35-1.91,0-3.84-1.1-4.54-2.95l2.16-.98c.54,.98,1.18,1.69,2.38,1.69,1.07,0,1.99-.73,1.99-1.85,0-.7-.34-1.04-.93-1.43l-2.47-1.32c-1.46-.79-2.53-1.52-2.53-3.31,0-2.13,1.74-3.82,3.87-3.82,1.6,0,2.89,.87,3.59,2.3l-2.05,1.09Z"/>
        <path class="cls-3" d="M304.64,22.22c0,3.96-3.09,6.99-7.02,6.99s-7.02-3.03-7.02-6.99,3.09-6.99,7.02-6.99,7.02,3.03,7.02,6.99Zm-11.51,0c0,2.47,1.99,4.58,4.49,4.58s4.49-2.1,4.49-4.58-1.99-4.57-4.49-4.57-4.49,2.08-4.49,4.57Z"/>
        <path class="cls-3" d="M313.45,6.96c-.5-.22-1.15-.53-1.68-.53-1.8,0-1.8,2.27-1.8,3.56v5.64h3.48v2.36h-3.48v10.78h-2.53v-10.78h-1.15v-2.36h1.15v-6.4c0-2.86,.98-5.16,4.24-5.16,.62,0,1.21,.11,1.77,.34v2.55Z"/>
        <path class="cls-3" d="M338.46,11.64c-1.51-1.35-3.59-2.08-5.58-2.08-4.74,0-8.36,3.96-8.36,8.64s3.59,8.59,8.31,8.59c2.08,0,4.07-.79,5.64-2.19v3.12c-1.63,.95-3.7,1.49-5.56,1.49-6.03,0-11.03-4.8-11.03-10.92s5.02-11.14,11.25-11.14c1.85,0,3.73,.45,5.33,1.43v3.06Z"/>
        <path class="cls-3" d="M343.84,4.4v12.99h.06c.79-1.41,2.36-2.16,3.96-2.16,3.7,0,4.66,2.5,4.66,5.7v7.83h-2.53v-7.52c0-2.25-.31-3.76-2.89-3.76-3.25,0-3.25,2.86-3.25,5.25v6.04h-2.52V4.4h2.52Z"/>
        <path class="cls-3" d="M358.41,17.76h.08c.62-1.54,1.91-2.53,3.59-2.53,.73,0,1.46,.25,2.08,.64l-1.15,2.3c-.45-.39-.95-.53-1.54-.53-2.72,0-3.06,2.53-3.06,4.66v6.45h-2.53V15.63h2.53v2.13Z"/>
        <path class="cls-3" d="M369.13,9.62c0,.95-.79,1.71-1.74,1.71s-1.74-.76-1.74-1.71,.79-1.77,1.74-1.77,1.74,.79,1.74,1.77Zm-.48,19.14h-2.53V15.63h2.53v13.13Z"/>
        <path class="cls-3" d="M377.27,18.63c-.31-.64-.95-1.15-1.68-1.15s-1.37,.56-1.37,1.29c0,1.15,1.52,1.65,3.06,2.36,1.54,.7,3.03,1.66,3.03,3.73,0,2.5-2.08,4.35-4.52,4.35-1.91,0-3.85-1.1-4.55-2.95l2.16-.98c.54,.98,1.18,1.69,2.39,1.69,1.07,0,1.99-.73,1.99-1.85,0-.7-.34-1.04-.93-1.43l-2.47-1.32c-1.46-.79-2.53-1.52-2.53-3.31,0-2.13,1.74-3.82,3.87-3.82,1.6,0,2.89,.87,3.59,2.3l-2.05,1.09Z"/>
        <path class="cls-3" d="M385.38,28.76h-2.53v-10.78h-1.37v-2.36h1.37v-5.03h2.53v5.03h2.47v2.36h-2.47v10.78Z"/>
      </g>
    </g>
  </g>
</svg>